<svg xmlns="http://www.w3.org/2000/svg" xmlns:xlink="http://www.w3.org/1999/xlink" width="500" zoomAndPan="magnify" viewBox="0 0 375 374.999991" height="500" preserveAspectRatio="xMidYMid meet" version="1.0"><defs><clipPath id="f971c8ad05"><path d="M 13.832031 31.199219 L 358 31.199219 L 358 343.949219 L 13.832031 343.949219 Z M 13.832031 31.199219 " clip-rule="nonzero"/></clipPath></defs><rect x="-37.5" width="450" fill="#ffffff" y="-37.499999" height="449.999989" fill-opacity="1"/><rect x="-37.5" width="450" fill="#ffffff" y="-37.499999" height="449.999989" fill-opacity="1"/><g clip-path="url(#f971c8ad05)"><path fill="#00004d" d="M 28.667969 175.398438 C 36.863281 175.398438 43.507812 182.042969 43.507812 190.238281 C 43.507812 198.433594 36.863281 205.082031 28.667969 205.082031 C 20.480469 205.082031 13.832031 198.433594 13.832031 190.238281 C 13.832031 182.046875 20.480469 175.398438 28.667969 175.398438 M 38.113281 91.953125 C 45.113281 91.953125 50.792969 97.625 50.792969 104.632812 C 50.792969 111.636719 45.113281 117.316406 38.113281 117.316406 C 31.109375 117.316406 25.429688 111.636719 25.429688 104.632812 C 25.429688 97.625 31.109375 91.953125 38.113281 91.953125 Z M 92.554688 130.398438 C 103.585938 130.398438 112.535156 139.347656 112.535156 150.378906 C 112.535156 161.410156 103.585938 170.355469 92.554688 170.355469 C 81.523438 170.355469 72.574219 161.40625 72.574219 150.378906 C 72.578125 139.34375 81.523438 130.398438 92.554688 130.398438 Z M 115.636719 53.527344 C 125.84375 53.527344 134.121094 61.800781 134.121094 72.011719 C 134.121094 82.21875 125.84375 90.5 115.636719 90.5 C 105.429688 90.5 97.15625 82.21875 97.15625 72.011719 C 97.15625 61.800781 105.429688 53.527344 115.636719 53.527344 Z M 225.042969 66.539062 L 261.503906 120.023438 L 262.96875 119.996094 C 281.324219 119.996094 296.203125 134.878906 296.203125 153.226562 C 296.203125 171.578125 281.324219 186.46875 262.96875 186.46875 C 254.332031 186.46875 246.1875 183.125 240.085938 177.332031 L 220.136719 184.566406 C 218.046875 191.640625 213.179688 197.511719 206.828125 200.945312 C 212.066406 202.683594 216.65625 206.027344 219.90625 210.507812 L 244.902344 210.398438 C 249.707031 204.125 257.242188 200.269531 265.414062 200.269531 C 279.667969 200.269531 291.234375 211.832031 291.234375 226.089844 C 291.234375 240.351562 279.671875 251.910156 265.414062 251.910156 C 257.285156 251.910156 249.785156 248.101562 244.976562 241.878906 L 219.679688 241.988281 C 215.679688 247.316406 209.785156 250.976562 203.171875 252.171875 L 193.722656 272.410156 C 194.789062 275.191406 195.339844 278.15625 195.339844 281.171875 C 195.339844 288.964844 191.703125 295.914062 186.027344 300.40625 C 202.382812 305.042969 217.070312 314.617188 227.964844 328.007812 L 281.839844 328.007812 L 301.351562 289.492188 C 328.230469 282.75 347.195312 283.730469 337.4375 251.039062 C 346.109375 242.746094 351.464844 239.722656 341.695312 232.480469 C 345.761719 230.382812 347.050781 228.347656 347.632812 225.554688 L 340.570312 212.1875 C 354.695312 204.09375 361.164062 196.011719 356.179688 190.25 L 323.96875 153.269531 C 318.5 85.855469 274.359375 55.296875 227.03125 52.707031 C 227.078125 53.460938 227.109375 54.214844 227.109375 54.976562 C 227.109375 58.945312 226.40625 62.855469 225.042969 66.539062 Z M 217.5 52.5625 C 216.289062 40.585938 206.171875 31.234375 193.875 31.234375 C 180.761719 31.234375 170.125 41.867188 170.125 54.976562 C 170.125 57.542969 170.535156 60.019531 171.289062 62.332031 C 174.382812 71.84375 183.324219 78.726562 193.875 78.726562 C 197.847656 78.726562 201.589844 77.753906 204.875 76.03125 L 246.113281 136.503906 C 241.855469 140.800781 239.222656 146.707031 239.222656 153.222656 L 239.25 154.226562 L 207.898438 165.597656 C 204.605469 161.4375 199.511719 158.761719 193.789062 158.761719 C 183.859375 158.761719 175.796875 166.820312 175.796875 176.753906 C 175.796875 186.691406 183.859375 194.742188 193.789062 194.742188 C 203.472656 194.742188 211.367188 187.089844 211.765625 177.507812 L 243.054688 166.15625 C 247.292969 172.667969 254.628906 176.972656 262.96875 176.972656 C 276.082031 176.972656 286.71875 166.332031 286.71875 153.222656 C 286.71875 140.105469 276.089844 129.472656 262.96875 129.472656 C 260.902344 129.472656 258.898438 129.738281 256.988281 130.230469 L 214.132812 67.375 C 216.347656 63.761719 217.617188 59.519531 217.617188 54.976562 C 217.617188 54.164062 217.578125 53.359375 217.5 52.5625 Z M 162.371094 268.742188 C 158.402344 271.445312 155.792969 276.003906 155.792969 281.164062 C 155.792969 288.957031 161.726562 295.371094 169.3125 296.128906 C 169.8125 296.175781 170.3125 296.203125 170.824219 296.203125 C 179.128906 296.203125 185.859375 289.46875 185.859375 281.164062 C 185.859375 277.980469 184.867188 275.023438 183.175781 272.589844 L 196.976562 243.03125 L 198.480469 243.097656 C 205.597656 243.097656 211.699219 238.722656 214.234375 232.515625 L 250.339844 232.359375 C 252.796875 238.265625 258.625 242.414062 265.417969 242.414062 C 274.441406 242.414062 281.75 235.105469 281.75 226.085938 C 281.75 217.070312 274.441406 209.753906 265.417969 209.753906 C 258.601562 209.753906 252.765625 213.925781 250.316406 219.859375 L 214.378906 220.015625 C 211.933594 213.621094 205.738281 209.078125 198.488281 209.078125 C 192.875 209.078125 187.894531 211.800781 184.792969 216 L 155.042969 199.703125 C 155.347656 198.292969 155.511719 196.824219 155.511719 195.324219 C 155.511719 188.929688 152.621094 183.214844 148.074219 179.417969 L 160.519531 148.644531 C 161.816406 148.808594 163.132812 148.898438 164.464844 148.898438 C 181.457031 148.898438 195.222656 135.125 195.222656 118.132812 C 195.222656 101.144531 181.453125 87.375 164.464844 87.375 C 147.476562 87.375 133.707031 101.144531 133.707031 118.132812 C 133.707031 129.351562 139.710938 139.160156 148.675781 144.539062 L 136.496094 174.664062 L 134.777344 174.59375 C 123.332031 174.59375 114.046875 183.871094 114.046875 195.324219 C 114.046875 206.773438 123.332031 216.050781 134.777344 216.050781 C 140.203125 216.050781 145.140625 213.96875 148.832031 210.5625 L 181.652344 228.535156 C 182.140625 231.925781 183.625 234.984375 185.800781 237.421875 L 172.359375 266.21875 L 170.828125 266.140625 C 167.691406 266.136719 164.777344 267.097656 162.371094 268.742188 Z M 193.785156 149.277344 C 199.757812 149.277344 205.472656 151.210938 210.15625 154.683594 L 230.246094 147.398438 C 230.949219 143.4375 232.367188 139.648438 234.417969 136.203125 L 201.15625 87.417969 C 198.777344 87.945312 196.339844 88.222656 193.875 88.222656 L 191.273438 88.121094 C 199.515625 95.492188 204.707031 106.203125 204.707031 118.132812 C 204.707031 130.871094 198.789062 142.226562 189.550781 149.609375 C 190.929688 149.386719 192.34375 149.277344 193.785156 149.277344 Z M 162.0625 309.25 C 171.601562 309.25 179.332031 316.980469 179.332031 326.519531 C 179.332031 336.058594 171.601562 343.792969 162.0625 343.792969 C 152.53125 343.792969 144.792969 336.058594 144.792969 326.519531 C 144.792969 316.980469 152.523438 309.25 162.0625 309.25 Z M 108.34375 283.082031 C 117.882812 283.082031 125.613281 290.8125 125.613281 300.351562 C 125.613281 309.890625 117.882812 317.621094 108.34375 317.621094 C 98.804688 317.621094 91.074219 309.890625 91.074219 300.351562 C 91.074219 290.8125 98.804688 283.082031 108.34375 283.082031 Z M 81.660156 223.164062 C 89.707031 223.164062 96.226562 229.6875 96.226562 237.730469 C 96.226562 245.777344 89.707031 252.296875 81.660156 252.296875 C 73.609375 252.296875 67.09375 245.769531 67.09375 237.730469 C 67.09375 229.679688 73.617188 223.164062 81.660156 223.164062 Z M 81.660156 223.164062 " fill-opacity="1" fill-rule="evenodd"/></g></svg>