<svg xmlns="http://www.w3.org/2000/svg" xmlns:xlink="http://www.w3.org/1999/xlink" width="500" zoomAndPan="magnify" viewBox="0 0 375 374.999991" height="500" preserveAspectRatio="xMidYMid meet" version="1.0"><defs><clipPath id="e6aff9fe30"><path d="M 14.96875 32.222656 L 357 32.222656 L 357 342.722656 L 14.96875 342.722656 Z M 14.96875 32.222656 " clip-rule="nonzero"/></clipPath></defs><g clip-path="url(#e6aff9fe30)"><path fill="#ffffff" d="M 29.710938 175.476562 C 37.851562 175.476562 44.449219 182.078125 44.449219 190.21875 C 44.449219 198.359375 37.851562 204.964844 29.710938 204.964844 C 21.574219 204.964844 14.96875 198.359375 14.96875 190.21875 C 14.96875 182.082031 21.574219 175.476562 29.710938 175.476562 M 39.089844 92.574219 C 46.046875 92.574219 51.6875 98.210938 51.6875 105.175781 C 51.6875 112.132812 46.046875 117.773438 39.089844 117.773438 C 32.132812 117.773438 26.492188 112.132812 26.492188 105.175781 C 26.492188 98.210938 32.132812 92.574219 39.089844 92.574219 Z M 93.175781 130.773438 C 104.136719 130.773438 113.027344 139.660156 113.027344 150.621094 C 113.027344 161.582031 104.136719 170.464844 93.175781 170.464844 C 82.21875 170.464844 73.328125 161.574219 73.328125 150.621094 C 73.332031 139.65625 82.21875 130.773438 93.175781 130.773438 Z M 116.105469 54.402344 C 126.246094 54.402344 134.472656 62.621094 134.472656 72.769531 C 134.472656 82.90625 126.246094 91.132812 116.105469 91.132812 C 105.964844 91.132812 97.746094 82.90625 97.746094 72.769531 C 97.746094 62.621094 105.964844 54.402344 116.105469 54.402344 Z M 224.796875 67.332031 L 261.023438 120.464844 L 262.476562 120.433594 C 280.710938 120.433594 295.492188 135.222656 295.492188 153.449219 C 295.492188 171.679688 280.710938 186.472656 262.476562 186.472656 C 253.898438 186.472656 245.800781 183.152344 239.742188 177.398438 L 219.921875 184.582031 C 217.847656 191.613281 213.015625 197.445312 206.703125 200.855469 C 211.90625 202.582031 216.464844 205.902344 219.695312 210.355469 L 244.527344 210.246094 C 249.300781 204.011719 256.785156 200.183594 264.902344 200.183594 C 279.0625 200.183594 290.554688 211.671875 290.554688 225.835938 C 290.554688 240.003906 279.070312 251.488281 264.902344 251.488281 C 256.828125 251.488281 249.378906 247.703125 244.601562 241.523438 L 219.46875 241.628906 C 215.496094 246.925781 209.640625 250.5625 203.070312 251.746094 L 193.683594 271.851562 C 194.742188 274.617188 195.289062 277.558594 195.289062 280.558594 C 195.289062 288.296875 191.675781 295.203125 186.039062 299.664062 C 202.289062 304.269531 216.878906 313.78125 227.699219 327.085938 L 281.222656 327.085938 L 300.605469 288.824219 C 327.3125 282.125 346.148438 283.097656 336.457031 250.621094 C 345.074219 242.382812 350.390625 239.378906 340.6875 232.183594 C 344.726562 230.101562 346.007812 228.082031 346.585938 225.304688 L 339.570312 212.023438 C 353.605469 203.984375 360.027344 195.957031 355.074219 190.230469 L 323.074219 153.492188 C 317.644531 86.519531 273.792969 56.160156 226.773438 53.589844 C 226.820312 54.335938 226.851562 55.085938 226.851562 55.84375 C 226.851562 59.785156 226.152344 63.667969 224.796875 67.332031 Z M 217.304688 53.445312 C 216.101562 41.546875 206.050781 32.257812 193.835938 32.257812 C 180.804688 32.257812 170.242188 42.820312 170.242188 55.84375 C 170.242188 58.390625 170.648438 60.851562 171.394531 63.148438 C 174.46875 72.601562 183.351562 79.4375 193.835938 79.4375 C 197.78125 79.4375 201.496094 78.46875 204.765625 76.757812 L 245.730469 136.839844 C 241.5 141.105469 238.886719 146.972656 238.886719 153.445312 L 238.910156 154.445312 L 207.765625 165.738281 C 204.496094 161.605469 199.433594 158.949219 193.75 158.949219 C 183.886719 158.949219 175.875 166.953125 175.875 176.824219 C 175.875 186.695312 183.886719 194.691406 193.75 194.691406 C 203.371094 194.691406 211.214844 187.089844 211.609375 177.570312 L 242.691406 166.296875 C 246.902344 172.761719 254.191406 177.039062 262.476562 177.039062 C 275.503906 177.039062 286.070312 166.46875 286.070312 153.445312 C 286.070312 140.414062 275.511719 129.851562 262.476562 129.851562 C 260.421875 129.851562 258.429688 130.113281 256.535156 130.605469 L 213.957031 68.160156 C 216.160156 64.570312 217.421875 60.355469 217.421875 55.84375 C 217.421875 55.035156 217.378906 54.234375 217.304688 53.445312 Z M 162.535156 268.210938 C 158.59375 270.894531 156.003906 275.425781 156.003906 280.550781 C 156.003906 288.292969 161.894531 294.664062 169.433594 295.417969 C 169.929688 295.464844 170.425781 295.488281 170.933594 295.488281 C 179.183594 295.488281 185.871094 288.800781 185.871094 280.550781 C 185.871094 277.386719 184.886719 274.449219 183.203125 272.03125 L 196.914062 242.664062 L 198.410156 242.730469 C 205.480469 242.730469 211.542969 238.386719 214.0625 232.21875 L 249.929688 232.066406 C 252.371094 237.933594 258.160156 242.054688 264.910156 242.054688 C 273.871094 242.054688 281.132812 234.792969 281.132812 225.832031 C 281.132812 216.875 273.871094 209.605469 264.910156 209.605469 C 258.136719 209.605469 252.339844 213.753906 249.90625 219.644531 L 214.203125 219.800781 C 211.777344 213.449219 205.621094 208.9375 198.417969 208.9375 C 192.839844 208.9375 187.894531 211.640625 184.8125 215.8125 L 155.253906 199.621094 C 155.558594 198.222656 155.722656 196.761719 155.722656 195.273438 C 155.722656 188.921875 152.851562 183.242188 148.332031 179.46875 L 160.699219 148.898438 C 161.984375 149.058594 163.296875 149.148438 164.617188 149.148438 C 181.5 149.148438 195.175781 135.46875 195.175781 118.585938 C 195.175781 101.710938 181.492188 88.027344 164.617188 88.027344 C 147.742188 88.027344 134.058594 101.710938 134.058594 118.585938 C 134.058594 129.730469 140.023438 139.476562 148.929688 144.820312 L 136.828125 174.75 L 135.125 174.675781 C 123.753906 174.675781 114.527344 183.894531 114.527344 195.273438 C 114.527344 206.644531 123.753906 215.863281 135.125 215.863281 C 140.515625 215.863281 145.417969 213.792969 149.085938 210.410156 L 181.691406 228.265625 C 182.175781 231.632812 183.652344 234.671875 185.8125 237.09375 L 172.460938 265.703125 L 170.941406 265.625 C 167.824219 265.617188 164.929688 266.578125 162.535156 268.210938 Z M 193.746094 149.527344 C 199.679688 149.527344 205.355469 151.445312 210.011719 154.898438 L 229.96875 147.660156 C 230.667969 143.722656 232.074219 139.960938 234.113281 136.539062 L 201.066406 88.070312 C 198.703125 88.597656 196.28125 88.871094 193.835938 88.871094 L 191.25 88.769531 C 199.441406 96.09375 204.597656 106.734375 204.597656 118.585938 C 204.597656 131.238281 198.714844 142.523438 189.539062 149.855469 C 190.910156 149.632812 192.316406 149.527344 193.746094 149.527344 Z M 162.230469 308.453125 C 171.707031 308.453125 179.386719 316.132812 179.386719 325.609375 C 179.386719 335.085938 171.707031 342.765625 162.230469 342.765625 C 152.761719 342.765625 145.074219 335.085938 145.074219 325.609375 C 145.074219 316.132812 152.753906 308.453125 162.230469 308.453125 Z M 108.863281 282.453125 C 118.339844 282.453125 126.019531 290.132812 126.019531 299.609375 C 126.019531 309.085938 118.339844 316.769531 108.863281 316.769531 C 99.386719 316.769531 91.703125 309.085938 91.703125 299.609375 C 91.703125 290.132812 99.386719 282.453125 108.863281 282.453125 Z M 82.355469 222.929688 C 90.347656 222.929688 96.824219 229.410156 96.824219 237.402344 C 96.824219 245.394531 90.347656 251.871094 82.355469 251.871094 C 74.355469 251.871094 67.882812 245.386719 67.882812 237.402344 C 67.882812 229.402344 74.363281 222.929688 82.355469 222.929688 Z M 82.355469 222.929688 " fill-opacity="1" fill-rule="evenodd"/></g></svg>